<svg version="1.0" xmlns="http://www.w3.org/2000/svg"
     width="600.000000pt" height="600.000000pt" viewBox="0 0 600.000000 600.000000"
     preserveAspectRatio="xMidYMid meet">

    <g transform="translate(0.000000,600.000000) scale(0.100000,-0.100000)"
       fill="#002346" stroke="none">
        <path d="M4065 4704 c-221 -35 -394 -121 -523 -258 -219 -234 -213 -566 13
-798 30 -32 74 -70 96 -85 30 -20 39 -32 35 -46 -3 -11 -15 -79 -28 -152 -24
-143 -21 -165 25 -165 11 0 103 45 206 99 l186 99 140 5 c173 6 262 28 405 99
89 44 118 65 190 138 120 120 170 223 185 377 12 127 -37 280 -126 393 -94
119 -269 226 -439 270 -84 21 -294 35 -365 24z m346 -123 c148 -38 304 -135
378 -234 159 -214 143 -447 -43 -631 -150 -149 -331 -216 -578 -216 l-120 0
-140 -76 c-77 -42 -142 -73 -145 -70 -3 3 2 43 11 88 26 136 25 141 -42 187
-346 235 -331 650 32 870 63 38 195 86 276 100 84 15 283 6 371 -18z"/>
        <path d="M3776 4244 c-21 -21 -20 -47 2 -67 17 -15 59 -17 405 -17 374 0 388
1 407 20 24 24 24 29 4 58 l-15 22 -394 0 c-344 0 -396 -2 -409 -16z"/>
        <path d="M3792 3958 c-7 -7 -12 -21 -12 -33 0 -45 4 -45 417 -45 390 0 392 0
404 21 8 16 8 28 0 45 l-11 24 -393 0 c-292 0 -396 -3 -405 -12z"/>
        <path d="M2322 4200 c-130 -79 -74 -280 78 -280 54 0 102 27 131 72 29 47 23
137 -12 174 -53 57 -136 71 -197 34z m124 -105 c29 -44 -40 -99 -82 -64 -17
14 -18 61 -2 77 18 18 69 10 84 -13z"/>
        <path d="M2368 3859 c-16 -9 -18 -27 -18 -138 l0 -128 -99 -6 c-120 -6 -187
-33 -253 -99 -66 -66 -91 -126 -96 -229 l-4 -86 -93 -5 c-152 -8 -248 -67
-304 -187 -26 -56 -26 -56 -26 -316 0 -295 3 -310 83 -397 64 -69 119 -92 237
-98 l100 -5 6 -90 c4 -69 12 -102 32 -140 30 -60 95 -124 157 -156 l45 -24
920 0 920 0 45 24 c62 32 127 96 157 156 20 38 28 71 32 140 l6 90 68 3 67 3
0 -261 c0 -199 -3 -268 -14 -293 -17 -39 -71 -92 -109 -106 -18 -7 -167 -11
-415 -11 -335 0 -391 -2 -410 -16 -25 -17 -30 -65 -8 -83 10 -9 124 -11 428
-9 l413 3 49 24 c61 30 117 87 148 149 22 45 23 58 27 337 l3 290 41 30 c58
42 104 107 123 170 12 45 15 99 12 292 -3 233 -4 239 -29 294 -57 120 -152
179 -305 187 l-93 5 -3 70 c-2 57 -7 72 -23 83 -16 11 -25 11 -45 1 l-25 -13
-5 -644 c-5 -605 -6 -647 -24 -680 -26 -49 -64 -88 -111 -113 l-40 -22 -880 0
-880 0 -40 22 c-47 25 -85 64 -111 113 -18 33 -19 70 -19 675 0 608 1 642 19
678 22 45 66 91 110 115 28 16 90 17 706 20 606 2 676 4 692 19 25 22 23 59
-4 77 -20 14 -89 16 -550 16 l-528 0 0 130 c0 118 -2 130 -19 140 -24 12 -41
12 -63 -1z m-470 -1191 l-3 -393 -50 -3 c-114 -8 -208 39 -246 122 -16 36 -19
69 -19 269 0 248 5 274 58 331 44 47 97 66 185 66 l77 0 -2 -392z m2500 376
c49 -20 90 -60 113 -109 16 -35 19 -67 19 -270 0 -202 -3 -235 -19 -271 -38
-83 -132 -130 -246 -122 l-50 3 -3 393 -2 392 75 0 c46 0 90 -6 113 -16z"/>
        <path d="M2550 3197 c-50 -16 -143 -112 -158 -163 -55 -186 66 -357 253 -358
151 -1 267 113 269 265 1 113 -64 211 -168 254 -41 17 -144 18 -196 2z m170
-110 c50 -26 90 -90 90 -141 -1 -144 -177 -217 -279 -115 -62 61 -63 155 -3
221 54 60 122 72 192 35z"/>
        <path d="M3342 3184 c-93 -46 -146 -134 -146 -244 1 -230 271 -348 451 -196
49 41 83 119 83 189 0 93 -17 135 -80 197 -62 63 -104 80 -197 80 -43 0 -73
-7 -111 -26z m167 -84 c75 -21 131 -111 116 -183 -17 -78 -89 -137 -166 -137
-49 0 -110 39 -136 85 -28 50 -29 96 -3 151 36 74 111 107 189 84z"/>
        <path d="M2507 2412 c-28 -31 -20 -55 36 -108 95 -92 216 -160 340 -189 83
-20 263 -19 346 1 108 26 241 97 321 171 74 69 85 96 52 126 -30 27 -47 21
-119 -44 -114 -101 -285 -169 -428 -169 -145 0 -316 68 -427 169 -70 64 -94
73 -121 43z"/>
        <path d="M2870 1571 c-5 -11 -10 -68 -10 -128 0 -161 -12 -153 220 -153 158 0
191 3 204 16 13 12 16 39 16 130 0 64 -5 124 -10 135 -10 18 -23 19 -210 19
-187 0 -200 -1 -210 -19z m328 -128 l3 -53 -120 0 -121 0 0 48 c0 27 3 52 7
56 4 4 57 6 118 4 l110 -3 3 -52z"/>
    </g>
</svg>